<?xml version="1.0" encoding="UTF-8"?>
<svg id="icon" xmlns="http://www.w3.org/2000/svg" width="32" height="32" viewBox="0 0 32 32">
  <rect x="27" y="2" width="2" height="28"/>
  <path d="m20,15h-8c-1.1028,0-2-.8972-2-2v-6c0-1.1028.8972-2,2-2h8c1.1028,0,2,.8972,2,2v6c0,1.1028-.8972,2-2,2ZM12,7v6h8v-6h-8Z"/>
  <path d="m12,17h8c1.1028,0,2,.8972,2,2v6c0,1.1028-.8972,2-2,2h-8c-1.1028,0-2-.8972-2-2v-6c0-1.1028.8972-2,2-2Zm8,8v-6h-8v6h8Z"/>
  <rect x="3" y="2" width="2" height="28"/>
  <rect id="_Transparent_Rectangle_" width="32" height="32"/>
</svg>