<?xml version="1.0" encoding="UTF-8"?>
<svg id="icon" xmlns="http://www.w3.org/2000/svg" width="32" height="32" viewBox="0 0 32 32">
  <circle cx="7" cy="6" r="1"/>
  <circle cx="11" cy="6" r="1"/>
  <circle cx="28.5" cy="24.5" r="1.5"/>
  <circle cx="23.5" cy="27.5" r="1.5"/>
  <circle cx="18.5" cy="24.5" r="1.5"/>
  <circle cx="18.5" cy="19.5" r="1.5"/>
  <circle cx="23.5" cy="16.5" r="1.5"/>
  <circle cx="28.5" cy="19.5" r="1.5"/>
  <path d="m28,2H4c-1.1046,0-2,.8954-2,2v20c0,1.1046.8954,2,2,2h9v-2H4v-14h24v4h2V4c0-1.1046-.8954-2-2-2Zm0,6H4v-4h24v4Z"/>
  <rect id="_Transparent_Rectangle_" width="32" height="32"/>
</svg>