<svg xmlns="http://www.w3.org/2000/svg" viewBox="0 0 32 32" width="32" height="32"><polygon fill="currentColor" points="30 4 26 4 26 0 24 0 24 4 20 4 20 6 24 6 24 10 26 10 26 6 30 6 30 4"/><path fill="currentColor" d="M11.5,11A2.5,2.5,0,1,0,14,13.5,2.48,2.48,0,0,0,11.5,11Z"/><path fill="currentColor" d="M20.5,11A2.5,2.5,0,1,0,23,13.5,2.48,2.48,0,0,0,20.5,11Z"/><path fill="currentColor" d="M9,20a8.13,8.13,0,0,0,14,0Z"/><path fill="currentColor" d="M27.82,14A12,12,0,1,1,16,4V2A14,14,0,1,0,30,16a14.71,14.71,0,0,0-.16-2Z"/></svg>