
<svg xmlns="http://www.w3.org/2000/svg" width="32" height="32" viewBox="0 0 32 32">
  <circle fill="currentColor" cx="9" cy="26" r="1"/>
  <path fill="currentColor" d="m4,24v4c0,1.1.9,2,2,2h12v-2H6v-4h12v-2H6c-1.1,0-2,.9-2,2Z"/>
  <path fill="currentColor" d="m4,13v5c0,1.1.9,2,2,2h8v-2H6v-5h-2Z"/>
  <circle fill="currentColor" cx="9" cy="16" r="1"/>
  <path fill="currentColor" d="m28,19v-5c0-1.1-.9-2-2-2h-8v2h8v5h2Z"/>
  <path fill="currentColor" d="m28,8v-4c0-1.1-.9-2-2-2h-12v2h12v4h-12v2h12c1.1,0,2-.9,2-2Z"/>
  <path fill="currentColor" d="m23.41,22l-13.41-13.41V2H2v8h6.59l13.41,13.41v6.59h8v-8h-6.59Zm-15.41-14h-4v-4h4v4Zm20,20h-4v-4h4v4Z"/>
  <g id="_Transparent_Rectangle_">
    <rect width="32" height="32"/>
  </g>
</svg>