<?xml version="1.0" encoding="UTF-8"?>
<svg id="icon" xmlns="http://www.w3.org/2000/svg" width="32" height="32" viewBox="0 0 32 32">
  <rect x="19" y="27" width="2" height="4" transform="translate(49 9) rotate(90)"/>
  <rect x="25" y="27" width="2" height="4" transform="translate(55 3) rotate(90)"/>
  <path d="m13,28v-3h-2v3c0,1.1046.8954,2,2,2h3v-2h-3Z"/>
  <rect x="11" y="19" width="2" height="4"/>
  <rect x="11" y="13" width="2" height="4"/>
  <polygon points="22 12 12 2 2 12 3.4141 13.4141 11 5.8281 11 11 13 11 13 5.8281 20.5859 13.4141 22 12"/>
  <rect id="_Transparent_Rectangle_" width="32" height="32"/>
</svg>