
<svg xmlns="http://www.w3.org/2000/svg" width="32" height="32" viewBox="0 0 32 32">
  <polygon fill="currentColor" points="4 20 4 22 8.586 22 2 28.586 3.414 30 10 23.414 10 28 12 28 12 20 4 20"/>
  <path fill="currentColor" d="m28,25h-3v-2h3V7h-3v-2h3c1.1025,0,2,.897,2,2v16c0,1.1025-.8975,2-2,2Z"/>
  <circle fill="currentColor" cx="23" cy="15" r="2"/>
  <circle fill="currentColor" cx="16" cy="15" r="2"/>
  <circle fill="currentColor" cx="9" cy="15" r="2"/>
  <path fill="currentColor" d="m4,17V7h3v-2h-3c-1.103,0-2,.897-2,2v10h2Z"/>

</svg>