<svg xmlns="http://www.w3.org/2000/svg" width="32" height="32" viewBox="0 0 32 32">
  <path fill="currentColor" d="M22,24H10a2.0023,2.0023,0,0,1-2-2V10a2.0023,2.0023,0,0,1,2-2H22a2.0023,2.0023,0,0,1,2,2V22A2.0023,2.0023,0,0,1,22,24ZM10,10V22H22V10Z"/>
  <polygon fill="currentColor" points="11 2 2 2 2 11 4 11 4 4 11 4 11 2"/>
  <polygon fill="currentColor" points="2 21 2 30 11 30 11 28 4 28 4 21 2 21"/>
  <polygon fill="currentColor" points="30 11 30 2 21 2 21 4 28 4 28 11 30 11"/>
  <polygon fill="currentColor" points="21 30 30 30 30 21 28 21 28 28 21 28 21 30"/>

</svg>
